<svg width="24" height="25" viewBox="0 0 24 25" fill="none" xmlns="http://www.w3.org/2000/svg">
<path d="M20.25 5.67401H16.5V4.92401C16.5 3.68351 15.4905 2.67401 14.25 2.67401H9.75C8.5095 2.67401 7.5 3.68351 7.5 4.92401V5.67401H3.75C2.5095 5.67401 1.5 6.68351 1.5 7.92401V19.924C1.5 21.1645 2.5095 22.174 3.75 22.174H20.25C21.4905 22.174 22.5 21.1645 22.5 19.924V7.92401C22.5 6.68351 21.4905 5.67401 20.25 5.67401ZM9 4.92401C9 4.51076 9.33675 4.17401 9.75 4.17401H14.25C14.6632 4.17401 15 4.51076 15 4.92401V5.67401H9V4.92401ZM21 19.924C21 20.3373 20.6632 20.674 20.25 20.674H3.75C3.33675 20.674 3 20.3373 3 19.924V8.52626L4.9305 11.422C5.349 12.049 6.04875 12.424 6.8025 12.424H9.75C10.164 12.424 10.5 12.088 10.5 11.674C10.5 11.26 10.164 10.924 9.75 10.924H6.8025C6.55125 10.924 6.318 10.7988 6.1785 10.5903L3.9015 7.17401H20.0985L17.8215 10.5903C17.682 10.7995 17.4488 10.924 17.1975 10.924H14.25C13.836 10.924 13.5 11.26 13.5 11.674C13.5 12.088 13.836 12.424 14.25 12.424H17.1975C17.9513 12.424 18.651 12.049 19.0695 11.422L21 8.52626V19.924Z" fill="#395D76"/>
<path d="M12.75 13.924H11.25C10.0095 13.924 9 12.9145 9 11.674C9 10.4335 10.0095 9.42401 11.25 9.42401H12.75C13.9905 9.42401 15 10.4335 15 11.674C15 12.9145 13.9905 13.924 12.75 13.924ZM11.25 10.924C10.8368 10.924 10.5 11.2608 10.5 11.674C10.5 12.0873 10.8368 12.424 11.25 12.424H12.75C13.1632 12.424 13.5 12.0873 13.5 11.674C13.5 11.2608 13.1632 10.924 12.75 10.924H11.25Z" fill="#6BBCB9"/>
</svg>
