<svg width="1425" height="920" viewBox="0 0 1425 920" fill="none" xmlns="http://www.w3.org/2000/svg">
<g opacity="0.06">
<path d="M1243.29 873.405H1305.42L1058.72 511.284L1030.14 551.872L1243.29 873.405Z" fill="#141D24"/>
<path d="M741.037 127.394L999.533 506.975L1001.57 509.923L1030.14 469.561L1027.42 465.253L742.171 46.6705L129.263 873.405H189.352L741.037 127.394Z" fill="#141D24"/>
<path d="M1027.42 709.464L742.171 290.881L310.437 873.405H369.846L741.037 371.605L925.386 642.119L946.247 672.73L999.533 751.186L1027.88 792.682L1081.39 873.405H1139.21L1055.54 750.959L1027.42 709.464Z" fill="#141D24"/>
<path d="M827.203 839.846L926.973 698.126L897.495 655.951L823.575 759.803L691.832 606.972L495.239 873.405H552.607L693.873 684.748L827.203 839.846Z" fill="#141D24"/>
<path d="M1126.06 415.141L1097.94 374.326L1030.14 469.561L1001.57 509.923L965.748 560.035L994.772 601.53L1013.82 574.774L1030.14 551.872L1058.72 511.283L1105.65 444.165L1126.06 415.141Z" fill="#141D24"/>
</g>
</svg>
