<svg width="200" height="47" viewBox="0 0 200 47" fill="none" xmlns="http://www.w3.org/2000/svg">
<g clip-path="url(#clip0_10_2114)">
<path d="M77.6657 32.7679V15.9515H74.6671V18.4503L74.3699 18.0451C74.3564 18.0181 72.6545 15.7489 69.0076 15.7489C64.199 15.7489 60.282 19.6525 60.282 24.434C60.282 29.202 64.199 33.0921 69.0076 33.0921C72.6545 33.0921 74.3429 30.8093 74.3699 30.7958L74.6671 30.3906V32.7814H77.6657V32.7679ZM69.0886 30.4176C66.0495 30.4176 63.5777 27.7567 63.5777 24.488C63.5777 21.1788 66.0495 18.4908 69.0886 18.4908C72.1277 18.4908 74.5995 21.1788 74.5995 24.488C74.5995 27.7702 72.1277 30.4176 69.0886 30.4176Z" fill="#010101"/>
<path d="M88.4038 33.0785C91.9292 33.0785 94.5901 30.8364 94.5901 27.8513C94.5901 25.2984 92.591 23.3669 89.2277 22.6916C88.2282 22.4754 87.5529 22.2999 86.918 22.1108C85.824 21.7596 85.6754 20.9356 85.6754 20.1792C85.6754 19.1662 86.2832 18.0991 87.9581 18.0991C89.1197 18.0991 90.3353 18.5719 90.4704 19.4363H93.5635C93.1178 17.0186 91.0377 15.5733 87.9581 15.5733C84.8514 15.5733 82.7713 17.4373 82.7713 20.2062C82.7713 22.3809 84.3112 24.0288 87.0126 24.7446L89.3088 25.2984C90.8486 25.6361 91.5645 26.8788 91.5645 27.8918C91.5645 29.148 90.4839 30.4176 88.4173 30.4176C86.4723 30.4176 85.1486 29.175 85.0405 27.9458H81.7988C81.8934 30.7958 84.8244 33.0785 88.4038 33.0785Z" fill="#010101"/>
<path d="M106.652 15.6412C101.843 15.6412 97.9263 19.5313 97.9263 24.3263C97.9263 29.1213 101.843 33.0114 106.652 33.0114C110.042 33.0114 112.919 31.0394 114.202 27.8517H110.799C109.853 29.4185 108.34 30.3235 106.625 30.3235C103.532 30.3235 101.114 27.7031 101.114 24.3668C101.114 21.0981 103.586 18.4372 106.625 18.4372C108.286 18.4372 109.745 19.2611 110.663 20.7064H114.175C112.852 17.5728 109.988 15.6412 106.652 15.6412Z" fill="#010101"/>
<path d="M135.139 24.3939C135.139 19.4908 131.411 15.6412 126.656 15.6412C121.821 15.6412 118.039 19.4908 118.039 24.3939C118.039 29.2024 121.902 33.1195 126.656 33.1195C129.776 33.1195 132.572 31.4176 134.045 28.6756H130.344C129.371 29.7967 128.074 30.391 126.602 30.391C124.036 30.391 121.875 28.473 121.334 25.7311L121.294 25.542H135.071C135.112 25.1773 135.139 24.7856 135.139 24.3939ZM121.348 23.0837L121.388 22.8811C122.01 20.2472 124.103 18.4642 126.589 18.4642C129.047 18.4642 131.1 20.2337 131.681 22.8811L131.721 23.0837H121.348Z" fill="#010101"/>
<path d="M147.727 18.7746C149.294 18.7746 151.631 19.9363 151.631 23.1509V32.768H154.697V23.1509C154.697 21.3815 154.197 15.6005 147.727 15.6005C145.58 15.6005 143.986 16.2353 143.094 17.4509L142.797 17.8426V15.9381H139.731V32.768H142.797V23.5021C142.797 19.2339 146.241 18.7746 147.727 18.7746Z" fill="#010101"/>
<path d="M167.096 33.2815V30.1749C166.056 30.1478 164.76 29.8507 164.76 27.9867V18.7748H168.744V15.9383H164.76V8.53644L161.721 9.46843V15.9519H158.668V18.7883H161.721V28.0002C161.721 31.6066 163.382 33.241 167.096 33.2815Z" fill="#010101"/>
<path d="M177.2 15.9788H174.134V32.7682H177.2V15.9788Z" fill="#010101"/>
<path d="M175.619 6.90186C174.417 6.90186 173.445 7.82034 173.445 8.92792C173.445 10.0895 174.404 10.9945 175.619 10.9945C176.821 10.9945 177.794 10.0625 177.794 8.92792C177.78 7.82034 176.794 6.90186 175.619 6.90186Z" fill="#010101"/>
<path d="M199.23 32.7679V15.9515H196.231V18.4503L195.934 18.0451C195.921 18.0181 194.219 15.7489 190.572 15.7489C185.763 15.7489 181.846 19.6525 181.846 24.434C181.846 29.202 185.763 33.0921 190.572 33.0921C194.219 33.0921 195.907 30.8093 195.934 30.7958L196.231 30.3906V32.7814H199.23V32.7679ZM190.639 30.4176C187.6 30.4176 185.128 27.7567 185.128 24.488C185.128 21.1788 187.6 18.4908 190.639 18.4908C193.678 18.4908 196.15 21.1788 196.15 24.488C196.15 27.7702 193.678 30.4176 190.639 30.4176Z" fill="#010101"/>
<path d="M181.428 43.9252H182.873C182.427 45.3975 180.915 46.424 179.186 46.424C176.781 46.424 174.85 44.4655 174.85 42.0747C174.85 39.6705 176.795 37.739 179.186 37.739C180.942 37.739 182.468 38.779 182.914 40.2783H181.428C181.09 39.4138 180.077 38.8871 179.159 38.8871C177.727 38.8871 176.187 40.1702 176.187 42.0882C176.187 44.0468 177.727 45.2894 179.159 45.2894C180.077 45.3029 181.104 44.7897 181.428 43.9252Z" fill="#010101"/>
<path d="M190.829 40.359C190.829 41.7772 189.748 42.8713 187.709 42.8713H187.209V46.3021H186.034V37.8602H187.709C189.748 37.8602 190.829 38.9272 190.829 40.359ZM189.627 40.3725C189.627 39.7377 189.356 38.9813 187.709 38.9813H187.209V41.7502H187.709C189.356 41.7502 189.627 41.0208 189.627 40.3725Z" fill="#010101"/>
<path d="M194.921 43.9656L194.057 46.2888H192.787L196.191 37.6307H196.596L200 46.2888H198.73L197.88 43.9656H194.921ZM196.394 40.1701L195.327 42.8985H197.434L196.394 40.1701Z" fill="#010101"/>
<path d="M44.6543 33.1462H47.1396L37.2524 18.6125L36.1042 20.2469L44.6543 33.1462Z" fill="#010101"/>
<path d="M24.5154 3.2282L34.8889 18.4507L34.9564 18.5588L36.1045 16.9514L35.9965 16.7758L24.5695 0L0 33.1465H2.40427L24.5154 3.2282Z" fill="#010101"/>
<path d="M35.9963 26.5686L24.5693 9.79272L7.25317 33.1465H9.64394L24.5153 13.0209L31.9037 23.8671L32.7411 25.0963L34.8888 28.2435L36.0098 29.9048L38.1575 33.1465H40.4672L37.1309 28.2299L35.9963 26.5686Z" fill="#010101"/>
<path d="M27.973 31.7822L31.9711 26.1092L30.7825 24.4208L27.8244 28.581L22.5431 22.4487L14.6685 33.1464H16.9647L22.6242 25.5824L27.973 31.7822Z" fill="#010101"/>
<path d="M34.686 22.2462L35.4424 21.1656H35.4559L36.1043 20.2471L36.0097 20.112L34.9562 18.5587L33.5244 20.5713L34.686 22.2462Z" fill="#010101"/>
<path d="M37.2524 18.6127L39.1298 15.9383V15.9248L39.9403 14.7767L38.8192 13.1288L36.1042 16.9513L37.1308 18.4371L37.2524 18.6127Z" fill="#010101"/>
<path d="M36.0099 20.112L36.1044 20.2471L37.2525 18.6127L37.1309 18.4371L36.1044 16.9514L34.9563 18.5587L36.0099 20.112Z" fill="#010101"/>
</g>
<defs>
<clipPath id="clip0_10_2114">
<rect width="200" height="46.424" fill="white"/>
</clipPath>
</defs>
</svg>
