<svg width="199" height="47" viewBox="0 0 199 47" fill="none" xmlns="http://www.w3.org/2000/svg">
<g clip-path="url(#clip0_10_159)">
<path d="M76.9566 32.8924V16.2296H73.9855V18.7056L73.691 18.304C73.6776 18.2773 71.9913 16.0288 68.3777 16.0288C63.613 16.0288 59.7317 19.8967 59.7317 24.6346C59.7317 29.359 63.613 33.2136 68.3777 33.2136C71.9913 33.2136 73.6642 30.9517 73.691 30.9383L73.9855 30.5368V32.9057H76.9566V32.8924ZM68.458 30.5636C65.4466 30.5636 62.9974 27.927 62.9974 24.6881C62.9974 21.4091 65.4466 18.7457 68.458 18.7457C71.4693 18.7457 73.9185 21.4091 73.9185 24.6881C73.9185 27.9404 71.4693 30.5636 68.458 30.5636Z" fill="white"/>
<path d="M87.5967 33.2003C91.0899 33.2003 93.7265 30.9786 93.7265 28.0208C93.7265 25.4913 91.7457 23.5774 88.4131 22.9082C87.4227 22.6941 86.7536 22.5201 86.1245 22.3327C85.0404 21.9847 84.8932 21.1683 84.8932 20.4188C84.8932 19.4151 85.4955 18.3577 87.1551 18.3577C88.3061 18.3577 89.5106 18.8262 89.6444 19.6827H92.7093C92.2677 17.287 90.2066 15.855 87.1551 15.855C84.0768 15.855 82.0157 17.7019 82.0157 20.4456C82.0157 22.6004 83.5414 24.2332 86.2182 24.9426L88.4934 25.4913C90.0192 25.8259 90.7285 27.0572 90.7285 28.061C90.7285 29.3057 89.6578 30.5637 87.6101 30.5637C85.6828 30.5637 84.3712 29.3324 84.2642 28.1145H81.0521C81.1457 30.9385 84.05 33.2003 87.5967 33.2003Z" fill="white"/>
<path d="M105.678 15.9219C100.914 15.9219 97.0323 19.7764 97.0323 24.5276C97.0323 29.2789 100.914 33.1334 105.678 33.1334C109.038 33.1334 111.888 31.1794 113.16 28.0208H109.787C108.85 29.5733 107.351 30.47 105.651 30.47C102.587 30.47 100.191 27.8736 100.191 24.5678C100.191 21.3289 102.64 18.6923 105.651 18.6923C107.298 18.6923 108.743 19.5087 109.653 20.9408H113.133C111.821 17.8358 108.984 15.9219 105.678 15.9219Z" fill="white"/>
<path d="M133.905 24.5946C133.905 19.7362 130.211 15.9219 125.5 15.9219C120.708 15.9219 116.961 19.7362 116.961 24.5946C116.961 29.3592 120.788 33.2405 125.5 33.2405C128.591 33.2405 131.362 31.5541 132.82 28.8372H129.153C128.19 29.9481 126.905 30.5369 125.446 30.5369C122.903 30.5369 120.762 28.6365 120.226 25.9195L120.186 25.7322H133.838C133.878 25.3708 133.905 24.9827 133.905 24.5946ZM120.24 23.2963L120.28 23.0956C120.896 20.4857 122.97 18.7191 125.433 18.7191C127.868 18.7191 129.903 20.4724 130.478 23.0956L130.518 23.2963H120.24Z" fill="white"/>
<path d="M146.378 19.027C147.931 19.027 150.246 20.178 150.246 23.3634V32.8926H153.284V23.3634C153.284 21.6101 152.789 15.8818 146.378 15.8818C144.25 15.8818 142.671 16.5109 141.788 17.7154L141.493 18.1035V16.2164H138.455V32.8926H141.493V23.7113C141.493 19.4821 144.906 19.027 146.378 19.027Z" fill="white"/>
<path d="M165.571 33.4014V30.3231C164.54 30.2963 163.255 30.0019 163.255 28.1549V19.0272H167.203V16.2166H163.255V8.88232L160.244 9.8058V16.23H157.219V19.0406H160.244V28.1683C160.244 31.7418 161.89 33.3612 165.571 33.4014Z" fill="white"/>
<path d="M175.582 16.2563H172.543V32.8924H175.582V16.2563Z" fill="white"/>
<path d="M174.016 7.2627C172.825 7.2627 171.861 8.17279 171.861 9.27026C171.861 10.4213 172.811 11.318 174.016 11.318C175.207 11.318 176.17 10.3945 176.17 9.27026C176.157 8.17279 175.18 7.2627 174.016 7.2627Z" fill="white"/>
<path d="M197.411 32.8924V16.2296H194.439V18.7056L194.145 18.304C194.131 18.2773 192.445 16.0288 188.832 16.0288C184.067 16.0288 180.186 19.8967 180.186 24.6346C180.186 29.359 184.067 33.2136 188.832 33.2136C192.445 33.2136 194.118 30.9517 194.145 30.9383L194.439 30.5368V32.9057H197.411V32.8924ZM188.898 30.5636C185.887 30.5636 183.438 27.927 183.438 24.6881C183.438 21.4091 185.887 18.7457 188.898 18.7457C191.91 18.7457 194.359 21.4091 194.359 24.6881C194.359 27.9404 191.91 30.5636 188.898 30.5636Z" fill="white"/>
<path d="M179.771 43.9476H181.203C180.761 45.4065 179.262 46.4236 177.549 46.4236C175.167 46.4236 173.253 44.483 173.253 42.1141C173.253 39.7318 175.18 37.8179 177.549 37.8179C179.289 37.8179 180.801 38.8484 181.243 40.334H179.771C179.436 39.4775 178.432 38.9555 177.522 38.9555C176.104 38.9555 174.578 40.227 174.578 42.1274C174.578 44.0681 176.104 45.2994 177.522 45.2994C178.432 45.3128 179.45 44.8042 179.771 43.9476Z" fill="white"/>
<path d="M189.086 40.4145C189.086 41.8198 188.015 42.9039 185.994 42.9039H185.499V46.3033H184.335V37.9385H185.994C188.015 37.9385 189.086 38.9958 189.086 40.4145ZM187.895 40.4279C187.895 39.7988 187.627 39.0493 185.994 39.0493H185.499V41.793H185.994C187.627 41.793 187.895 41.0703 187.895 40.4279Z" fill="white"/>
<path d="M193.141 43.9879L192.285 46.2899H191.027L194.399 37.7109H194.801L198.173 46.2899H196.915L196.072 43.9879H193.141ZM194.6 40.2271L193.543 42.9306H195.631L194.6 40.2271Z" fill="white"/>
<path d="M44.2467 33.2676H46.7093L36.9124 18.8667L35.7748 20.4861L44.2467 33.2676Z" fill="white"/>
<path d="M24.2915 3.62255L34.5703 18.7061L34.6372 18.8131L35.7748 17.2205L35.6677 17.0465L24.3451 0.423828L0 33.2676H2.38231L24.2915 3.62255Z" fill="white"/>
<path d="M35.6677 26.7496L24.3451 10.127L7.18708 33.2675H9.55601L24.2915 13.3257L31.6125 24.0728L32.4422 25.2908L34.5703 28.4092L35.6811 30.0554L37.8091 33.2675H40.0978L36.792 28.3958L35.6677 26.7496Z" fill="white"/>
<path d="M27.7178 31.9157L31.6794 26.2945L30.5016 24.6215L27.5706 28.7437L22.3375 22.6675L14.5348 33.2674H16.81L22.4178 25.7725L27.7178 31.9157Z" fill="white"/>
<path d="M39.5758 15.0654L38.4649 13.4326L35.7748 17.2202L34.6372 18.8129L33.2185 20.8071L34.3695 22.4667L35.119 21.396H35.1324L35.7748 20.4859L36.9124 18.8664L38.7728 16.2164V16.2031L39.5758 15.0654Z" fill="white"/>
</g>
<defs>
<clipPath id="clip0_10_159">
<rect width="198.173" height="46" fill="white" transform="translate(0 0.423828)"/>
</clipPath>
</defs>
</svg>
