<svg width="201" height="47" viewBox="0 0 201 47" fill="none" xmlns="http://www.w3.org/2000/svg">
<g clip-path="url(#clip0_1_1254)">
<path d="M78.1649 32.7679V15.9515H75.1663V18.4503L74.8692 18.0451C74.8557 18.0181 73.1538 15.7489 69.5069 15.7489C64.6983 15.7489 60.7812 19.6525 60.7812 24.434C60.7812 29.202 64.6983 33.0921 69.5069 33.0921C73.1538 33.0921 74.8422 30.8093 74.8692 30.7958L75.1663 30.3906V32.7814H78.1649V32.7679ZM69.5879 30.4176C66.5488 30.4176 64.077 27.7567 64.077 24.488C64.077 21.1788 66.5488 18.4908 69.5879 18.4908C72.627 18.4908 75.0988 21.1788 75.0988 24.488C75.0988 27.7702 72.627 30.4176 69.5879 30.4176Z" fill="white"/>
<path d="M88.9038 33.0785C92.4292 33.0785 95.0901 30.8364 95.0901 27.8513C95.0901 25.2984 93.091 23.3669 89.7277 22.6916C88.7282 22.4754 88.0529 22.2999 87.418 22.1108C86.324 21.7596 86.1754 20.9356 86.1754 20.1792C86.1754 19.1662 86.7832 18.0991 88.4581 18.0991C89.6197 18.0991 90.8353 18.5719 90.9704 19.4363H94.0635C93.6178 17.0186 91.5377 15.5733 88.4581 15.5733C85.3514 15.5733 83.2713 17.4373 83.2713 20.2062C83.2713 22.3809 84.8112 24.0288 87.5126 24.7446L89.8088 25.2984C91.3486 25.6361 92.0645 26.8788 92.0645 27.8918C92.0645 29.148 90.9839 30.4176 88.9173 30.4176C86.9723 30.4176 85.6486 29.175 85.5405 27.9458H82.2988C82.3934 30.7958 85.3244 33.0785 88.9038 33.0785Z" fill="white"/>
<path d="M107.151 15.6412C102.343 15.6412 98.4258 19.5313 98.4258 24.3263C98.4258 29.1213 102.343 33.0114 107.151 33.0114C110.542 33.0114 113.419 31.0394 114.702 27.8517H111.298C110.353 29.4185 108.84 30.3235 107.124 30.3235C104.031 30.3235 101.613 27.7031 101.613 24.3668C101.613 21.0981 104.085 18.4372 107.124 18.4372C108.786 18.4372 110.245 19.2611 111.163 20.7064H114.675C113.351 17.5728 110.488 15.6412 107.151 15.6412Z" fill="white"/>
<path d="M135.637 24.3939C135.637 19.4908 131.909 15.6412 127.155 15.6412C122.319 15.6412 118.537 19.4908 118.537 24.3939C118.537 29.2024 122.4 33.1195 127.155 33.1195C130.275 33.1195 133.071 31.4176 134.543 28.6756H130.842C129.87 29.7967 128.573 30.391 127.101 30.391C124.534 30.391 122.373 28.473 121.833 25.7311L121.792 25.542H135.57C135.61 25.1773 135.637 24.7856 135.637 24.3939ZM121.846 23.0837L121.887 22.8811C122.508 20.2472 124.602 18.4642 127.087 18.4642C129.545 18.4642 131.598 20.2337 132.179 22.8811L132.22 23.0837H121.846Z" fill="white"/>
<path d="M148.227 18.7746C149.794 18.7746 152.13 19.9363 152.13 23.1509V32.768H155.196V23.1509C155.196 21.3815 154.697 15.6005 148.227 15.6005C146.079 15.6005 144.485 16.2353 143.594 17.4509L143.297 17.8426V15.9381H140.23V32.768H143.297V23.5021C143.297 19.2339 146.741 18.7746 148.227 18.7746Z" fill="white"/>
<path d="M167.596 33.2815V30.1749C166.556 30.1478 165.26 29.8507 165.26 27.9867V18.7748H169.244V15.9383H165.26V8.53644L162.221 9.46843V15.9518H159.168V18.7883H162.221V28.0002C162.221 31.6066 163.882 33.241 167.596 33.2815Z" fill="white"/>
<path d="M177.699 15.9788H174.633V32.7682H177.699V15.9788Z" fill="white"/>
<path d="M176.118 6.90186C174.916 6.90186 173.943 7.82034 173.943 8.92792C173.943 10.0895 174.902 10.9945 176.118 10.9945C177.32 10.9945 178.293 10.0625 178.293 8.92792C178.279 7.82034 177.293 6.90186 176.118 6.90186Z" fill="white"/>
<path d="M199.729 32.7679V15.9515H196.731V18.4503L196.434 18.0451C196.42 18.0181 194.718 15.7489 191.071 15.7489C186.263 15.7489 182.346 19.6525 182.346 24.434C182.346 29.202 186.263 33.0921 191.071 33.0921C194.718 33.0921 196.407 30.8093 196.434 30.7958L196.731 30.3906V32.7814H199.729V32.7679ZM191.139 30.4176C188.1 30.4176 185.628 27.7567 185.628 24.488C185.628 21.1788 188.1 18.4908 191.139 18.4908C194.178 18.4908 196.65 21.1788 196.65 24.488C196.65 27.7702 194.178 30.4176 191.139 30.4176Z" fill="white"/>
<path d="M181.928 43.9252H183.373C182.927 45.3975 181.414 46.424 179.685 46.424C177.281 46.424 175.35 44.4655 175.35 42.0747C175.35 39.6705 177.295 37.739 179.685 37.739C181.441 37.739 182.968 38.779 183.413 40.2783H181.928C181.59 39.4138 180.577 38.8871 179.658 38.8871C178.227 38.8871 176.687 40.1702 176.687 42.0882C176.687 44.0468 178.227 45.2894 179.658 45.2894C180.577 45.3029 181.603 44.7897 181.928 43.9252Z" fill="white"/>
<path d="M191.328 40.359C191.328 41.7772 190.248 42.8713 188.208 42.8713H187.708V46.3021H186.533V37.8602H188.208C190.248 37.8602 191.328 38.9272 191.328 40.359ZM190.126 40.3725C190.126 39.7377 189.856 38.9813 188.208 38.9813H187.708V41.7502H188.208C189.856 41.7502 190.126 41.0208 190.126 40.3725Z" fill="white"/>
<path d="M195.421 43.9656L194.557 46.2888H193.287L196.691 37.6307H197.096L200.5 46.2888H199.23L198.379 43.9656H195.421ZM196.894 40.1701L195.826 42.8985H197.934L196.894 40.1701Z" fill="white"/>
<path d="M45.1535 33.1462H47.6388L37.7516 18.6125L36.6035 20.2469L45.1535 33.1462Z" fill="white"/>
<path d="M25.0154 3.2282L35.3889 18.4507L35.4564 18.5588L36.6045 16.9514L36.4965 16.7758L25.0695 0L0.5 33.1465H2.90427L25.0154 3.2282Z" fill="white"/>
<path d="M36.4971 26.5686L25.07 9.79272L7.75391 33.1465H10.1447L25.016 13.0209L32.4044 23.8671L33.2419 25.0963L35.3895 28.2435L36.5106 29.9048L38.6582 33.1465H40.9679L37.6317 28.2299L36.4971 26.5686Z" fill="white"/>
<path d="M28.4725 31.7822L32.4706 26.1092L31.282 24.4208L28.3239 28.581L23.0426 22.4487L15.168 33.1464H17.4642L23.1237 25.5824L28.4725 31.7822Z" fill="white"/>
<path d="M35.187 22.2462L35.9434 21.1656H35.9569L36.6053 20.2471L36.5107 20.112L35.4571 18.5587L34.0254 20.5713L35.187 22.2462Z" fill="white"/>
<path d="M37.7516 18.6127L39.6291 15.9383V15.9248L40.4395 14.7767L39.3184 13.1288L36.6035 16.9513L37.6301 18.4371L37.7516 18.6127Z" fill="white"/>
<path d="M36.5106 20.112L36.6051 20.2471L37.7532 18.6127L37.6317 18.4371L36.6051 16.9514L35.457 18.5587L36.5106 20.112Z" fill="white"/>
</g>
<defs>
<clipPath id="clip0_1_1254">
<rect width="200" height="46.424" fill="white" transform="translate(0.5)"/>
</clipPath>
</defs>
</svg>
