<svg width="283" height="283" viewBox="0 0 283 283" fill="none" xmlns="http://www.w3.org/2000/svg">
<path d="M141.057 187.647C166.668 187.647 187.43 166.951 187.43 141.42C187.43 115.89 166.668 95.1935 141.057 95.1935C115.446 95.1935 94.6836 115.89 94.6836 141.42C94.6836 166.951 115.446 187.647 141.057 187.647Z" stroke="#6BBCB9" stroke-width="2" stroke-miterlimit="10"/>
<path d="M259.837 44.6118C271.801 44.6118 281.499 34.9439 281.499 23.0179C281.499 11.0919 271.801 1.42401 259.837 1.42401C247.873 1.42401 238.175 11.0919 238.175 23.0179C238.175 34.9439 247.873 44.6118 259.837 44.6118Z" stroke="#6BBCB9" stroke-width="2" stroke-miterlimit="10"/>
<path d="M90.1524 281.424C102.116 281.424 111.815 271.756 111.815 259.83C111.815 247.904 102.116 238.236 90.1524 238.236C78.1887 238.236 68.4902 247.904 68.4902 259.83C68.4902 271.756 78.1887 281.424 90.1524 281.424Z" stroke="#6BBCB9" stroke-width="2" stroke-miterlimit="10"/>
<path d="M47.7306 77.5602C63.8915 77.5602 76.9924 64.5005 76.9924 48.3905C76.9924 32.2806 63.8915 19.2209 47.7306 19.2209C31.5697 19.2209 18.4688 32.2806 18.4688 48.3905C18.4688 64.5005 31.5697 77.5602 47.7306 77.5602Z" stroke="#6BBCB9" stroke-width="2" stroke-miterlimit="10"/>
<path d="M30.7618 204.424C46.9227 204.424 60.0237 191.364 60.0237 175.254C60.0237 159.144 46.9227 146.085 30.7618 146.085C14.601 146.085 1.5 159.144 1.5 175.254C1.5 191.364 14.601 204.424 30.7618 204.424Z" stroke="#6BBCB9" stroke-width="2" stroke-miterlimit="10"/>
<path d="M225.901 255.169C242.061 255.169 255.162 242.11 255.162 226C255.162 209.89 242.061 196.83 225.901 196.83C209.74 196.83 196.639 209.89 196.639 226C196.639 242.11 209.74 255.169 225.901 255.169Z" stroke="#6BBCB9" stroke-width="2" stroke-miterlimit="10"/>
<path d="M220.355 62.3715L244.522 38.2804" stroke="#6BBCB9" stroke-width="2" stroke-miterlimit="10"/>
<path d="M174.996 107.594L213.535 69.1737" stroke="#6BBCB9" stroke-width="2" stroke-miterlimit="10"/>
<path d="M174.996 175.252L205.211 205.374" stroke="#6BBCB9" stroke-width="2" stroke-miterlimit="10"/>
<path d="M108.332 217.542L98.6855 239.979" stroke="#6BBCB9" stroke-width="2" stroke-miterlimit="10"/>
<path d="M122.786 183.919L111.812 209.443" stroke="#6BBCB9" stroke-width="2" stroke-miterlimit="10"/>
<path d="M107.969 109.037L67.7383 69.6663" stroke="#6BBCB9" stroke-width="2" stroke-miterlimit="10"/>
<path d="M96.937 155.675L59.0879 167.903" stroke="#6BBCB9" stroke-width="2" stroke-miterlimit="10"/>
</svg>
