<svg width="60" height="60" viewBox="0 0 60 60" fill="none" xmlns="http://www.w3.org/2000/svg">
<path opacity="0.3" d="M59.5 30.1893C59.5 46.3486 46.2961 59.4549 30 59.4549C13.7039 59.4549 0.5 46.3486 0.5 30.1893C0.5 14.0301 13.7039 0.923828 30 0.923828C46.2961 0.923828 59.5 14.0301 59.5 30.1893Z" stroke="#CED4DA"/>
<path opacity="0.3" d="M54.8847 30.1891C54.8847 43.8193 43.7472 54.8753 30.0001 54.8753C16.253 54.8753 5.11548 43.8193 5.11548 30.1891C5.11548 16.559 16.253 5.50293 30.0001 5.50293C43.7472 5.50293 54.8847 16.559 54.8847 30.1891Z" fill="#CED4DA" stroke="#ADB5BD"/>
<path d="M29.2929 40.0553C29.6834 40.4458 30.3166 40.4458 30.7071 40.0553L37.0711 33.6913C37.4616 33.3008 37.4616 32.6676 37.0711 32.2771C36.6805 31.8866 36.0474 31.8866 35.6569 32.2771L30 37.9339L24.3431 32.2771C23.9526 31.8866 23.3195 31.8866 22.9289 32.2771C22.5384 32.6676 22.5384 33.3008 22.9289 33.6913L29.2929 40.0553ZM29 20.4585V39.3482H31V20.4585H29Z" fill="#495057"/>
</svg>
