<svg width="24" height="25" viewBox="0 0 24 25" fill="none" xmlns="http://www.w3.org/2000/svg">
<path d="M12 5.62402C14.2 5.62402 14.5 5.62402 15.4 5.62402C16.2 5.62402 16.6 5.82402 16.9 5.92402C17.3 6.12402 17.6 6.22402 17.9 6.52402C18.2 6.82402 18.4 7.12402 18.5 7.52402C18.6 7.82402 18.7 8.22402 18.8 9.02402C18.8 9.92402 18.8 10.124 18.8 12.424C18.8 14.724 18.8 14.924 18.8 15.824C18.8 16.624 18.6 17.024 18.5 17.324C18.3 17.724 18.2 18.024 17.9 18.324C17.6 18.624 17.3 18.824 16.9 18.924C16.6 19.024 16.2 19.124 15.4 19.224C14.5 19.224 14.3 19.224 12 19.224C9.7 19.224 9.5 19.224 8.6 19.224C7.8 19.224 7.4 19.024 7.1 18.924C6.7 18.724 6.4 18.624 6.1 18.324C5.8 18.024 5.6 17.724 5.5 17.324C5.4 17.024 5.3 16.624 5.2 15.824C5.2 14.924 5.2 14.724 5.2 12.424C5.2 10.124 5.2 9.92402 5.2 9.02402C5.2 8.22402 5.4 7.82402 5.5 7.52402C5.7 7.12402 5.8 6.82402 6.1 6.52402C6.4 6.22402 6.7 6.02402 7.1 5.92402C7.4 5.82402 7.8 5.72402 8.6 5.62402C9.5 5.62402 9.8 5.62402 12 5.62402ZM12 4.12402C9.7 4.12402 9.5 4.12402 8.6 4.12402C7.7 4.12402 7.1 4.32402 6.6 4.52402C6.1 4.72402 5.6 5.02402 5.1 5.52402C4.6 6.02402 4.4 6.42402 4.1 7.02402C3.9 7.52402 3.8 8.12402 3.7 9.02402C3.7 9.92402 3.7 10.224 3.7 12.424C3.7 14.724 3.7 14.924 3.7 15.824C3.7 16.724 3.9 17.324 4.1 17.824C4.3 18.324 4.6 18.824 5.1 19.324C5.6 19.824 6 20.024 6.6 20.324C7.1 20.524 7.7 20.624 8.6 20.724C9.5 20.724 9.8 20.724 12 20.724C14.2 20.724 14.5 20.724 15.4 20.724C16.3 20.724 16.9 20.524 17.4 20.324C17.9 20.124 18.4 19.824 18.9 19.324C19.4 18.824 19.6 18.424 19.9 17.824C20.1 17.324 20.2 16.724 20.3 15.824C20.3 14.924 20.3 14.624 20.3 12.424C20.3 10.224 20.3 9.92402 20.3 9.02402C20.3 8.12402 20.1 7.52402 19.9 7.02402C19.7 6.52402 19.4 6.02402 18.9 5.52402C18.4 5.02402 18 4.82402 17.4 4.52402C16.9 4.32402 16.3 4.22402 15.4 4.12402C14.5 4.12402 14.3 4.12402 12 4.12402Z" fill="white"/>
<path d="M12 8.12402C9.6 8.12402 7.7 10.024 7.7 12.424C7.7 14.824 9.6 16.724 12 16.724C14.4 16.724 16.3 14.824 16.3 12.424C16.3 10.024 14.4 8.12402 12 8.12402ZM12 15.224C10.5 15.224 9.2 14.024 9.2 12.424C9.2 10.924 10.4 9.62402 12 9.62402C13.5 9.62402 14.8 10.824 14.8 12.424C14.8 13.924 13.5 15.224 12 15.224Z" fill="white"/>
<path d="M16.4 9.02402C16.9523 9.02402 17.4 8.57631 17.4 8.02402C17.4 7.47174 16.9523 7.02402 16.4 7.02402C15.8477 7.02402 15.4 7.47174 15.4 8.02402C15.4 8.57631 15.8477 9.02402 16.4 9.02402Z" fill="white"/>
</svg>
