<svg width="50" height="51" viewBox="0 0 50 51" fill="none" xmlns="http://www.w3.org/2000/svg">
<path d="M0.78125 12.9241H49.2188V37.9241H0.78125V12.9241Z" stroke="white" stroke-width="1.5625" stroke-miterlimit="10" stroke-dasharray="146.88 148.44"/>
<path d="M7.8125 34.7991C7.8125 32.6413 6.06406 30.8928 3.90625 30.8928V19.9553C6.06406 19.9553 7.8125 18.2069 7.8125 16.0491H42.1875C42.1875 18.2069 43.9359 19.9553 46.0938 19.9553V30.8928C43.9359 30.8928 42.1875 32.6413 42.1875 34.7991H7.8125Z" stroke="white" stroke-width="1.5625" stroke-miterlimit="10" stroke-dasharray="115.62 117.19"/>
<path d="M18.75 25.4241C18.75 23.7665 19.4085 22.1768 20.5806 21.0047C21.7527 19.8326 23.3424 19.1741 25 19.1741C26.6576 19.1741 28.2473 19.8326 29.4194 21.0047C30.5915 22.1768 31.25 23.7665 31.25 25.4241C31.25 27.0817 30.5915 28.6714 29.4194 29.8435C28.2473 31.0156 26.6576 31.6741 25 31.6741C23.3424 31.6741 21.7527 31.0156 20.5806 29.8435C19.4085 28.6714 18.75 27.0817 18.75 25.4241Z" stroke="white" stroke-width="1.5625" stroke-miterlimit="10" stroke-dasharray="39.84 41.41"/>
</svg>
