<svg width="24" height="25" viewBox="0 0 24 25" fill="none" xmlns="http://www.w3.org/2000/svg">
<path d="M7.60001 20.4238H4.2V9.72383H7.60001V20.4238ZM5.9 8.22383C4.8 8.22383 4 7.42383 4 6.32383C4 5.22383 4.9 4.42383 5.9 4.42383C7 4.42383 7.8 5.22383 7.8 6.32383C7.8 7.42383 7 8.22383 5.9 8.22383ZM20 20.4238H16.6V14.6238C16.6 12.9238 15.9 12.4238 14.9 12.4238C13.9 12.4238 12.9 13.2238 12.9 14.7238V20.4238H9.5V9.72383H12.7V11.2238C13 10.5238 14.2 9.42383 15.9 9.42383C17.8 9.42383 19.8 10.5238 19.8 13.8238V20.4238H20Z" fill="white"/>
</svg>
