<svg width="24" height="25" viewBox="0 0 24 25" fill="none" xmlns="http://www.w3.org/2000/svg">
<path d="M12 23.44C11.5305 23.44 11.097 23.2255 10.8105 22.8513C8.68725 20.08 3.75 13.2468 3.75 9.65802C3.75 5.10927 7.45125 1.40802 12 1.40802C16.5487 1.40802 20.25 5.10927 20.25 9.65802C20.25 13.2468 15.3128 20.08 13.1895 22.8513C12.903 23.2255 12.4695 23.44 12 23.44ZM12 2.90802C8.2785 2.90802 5.25 5.93652 5.25 9.65802C5.25 12.2148 8.7375 17.6785 12.0015 21.9393C15.2625 17.6785 18.75 12.2148 18.75 9.65802C18.75 5.93652 15.7215 2.90802 12 2.90802Z" fill="#395D76"/>
<path d="M12 12.424C9.93225 12.424 8.25 10.7418 8.25 8.67401C8.25 6.60626 9.93225 4.92401 12 4.92401C14.0677 4.92401 15.75 6.60626 15.75 8.67401C15.75 10.7418 14.0677 12.424 12 12.424ZM12 6.42401C10.7595 6.42401 9.75 7.43351 9.75 8.67401C9.75 9.91451 10.7595 10.924 12 10.924C13.2405 10.924 14.25 9.91451 14.25 8.67401C14.25 7.43351 13.2405 6.42401 12 6.42401Z" fill="#6BBCB9"/>
</svg>
