<svg width="233" height="275" viewBox="0 0 233 275" fill="none" xmlns="http://www.w3.org/2000/svg">
<path d="M92.2952 206.242L70.2086 197.093L45.8634 208.666C35.1483 197.951 35.1204 197.923 24.4053 187.208L35.9779 162.862L26.8294 140.776L1.43164 131.744C1.43164 116.591 1.43164 116.551 1.43164 101.398L26.8294 92.3665L35.9779 70.28L24.4053 45.9348C35.1204 35.2197 35.1483 35.1918 45.8634 24.4767L70.2086 36.0493C79.0251 32.3972 83.4788 30.5529 92.2952 26.9008L101.327 1.50244C116.48 1.50244 116.52 1.50244 131.673 1.50244L140.705 26.9003C149.521 30.5523 153.975 32.3967 162.791 36.0487L187.136 24.4761C197.851 35.1912 197.879 35.2192 208.594 45.9342L197.022 70.2794C200.674 79.0959 202.518 83.5496 206.17 92.366L231.568 101.398C231.568 116.551 231.568 116.591 231.568 131.744L206.17 140.775C202.518 149.592 200.674 154.045 197.022 162.862L208.594 187.207C197.879 197.922 197.851 197.95 187.136 208.665L162.791 197.093" stroke="#6BBCB9" stroke-width="2" stroke-miterlimit="10"/>
<path d="M148.615 146.401C155.886 138.576 160.335 128.094 160.335 116.571C160.335 92.3627 140.708 72.7354 116.5 72.7354C92.2915 72.7354 72.6641 92.3627 72.6641 116.571C72.6641 124.089 74.5599 131.163 77.8915 137.344" stroke="#6BBCB9" stroke-width="2" stroke-miterlimit="10"/>
<path d="M88.0071 251.366C68.829 212.461 112.002 191.45 112.665 170.27C112.734 168.041 106.637 163.694 106.637 163.694L100.765 166.63C95.4252 169.3 89.2142 169.626 83.6235 167.53L69.9249 173.557L57.8701 155.475L98.4181 118.763V101.776C109.01 101.776 117.596 107.075 117.596 117.667C146.607 133.184 164.719 166.413 164.719 199.313C164.719 216.095 160.975 236.214 153.761 251.366" stroke="#6BBCB9" stroke-width="2" stroke-miterlimit="10"/>
<path d="M81.9794 251.365C72.9005 251.365 65.541 258.725 65.541 267.804V273.283H175.13V267.804C175.13 258.725 167.771 251.365 158.692 251.365H81.9794Z" stroke="#6BBCB9" stroke-width="2" stroke-miterlimit="10"/>
</svg>
