<svg width="24" height="25" viewBox="0 0 24 25" fill="none" xmlns="http://www.w3.org/2000/svg">
<path d="M12.7241 22.9128C12.3611 22.9128 11.9951 22.825 11.6554 22.648C7.7434 20.6193 5.5099 17.6065 4.52665 15.9918C2.3479 12.4128 1.8904 8.88629 1.88965 6.55904C1.88965 5.77454 2.29315 5.05904 2.96965 4.64654L4.8334 3.51254C5.3464 3.19979 5.95015 3.10604 6.53515 3.24854C7.11865 3.39029 7.6129 3.75104 7.9249 4.26479L9.0949 6.18629C9.7399 7.24679 9.4024 8.63354 8.34265 9.27854L7.3774 9.86579C7.0879 10.042 6.9469 10.396 7.04365 10.7065C7.3624 11.7378 7.8094 12.7285 8.37115 13.6518C8.9314 14.572 9.60565 15.4225 10.3736 16.18C10.6114 16.414 10.9826 16.4523 11.2774 16.273L12.2419 15.6858C13.3001 15.0393 14.6884 15.3775 15.3341 16.4373L16.5041 18.3595C16.8169 18.8733 16.9106 19.477 16.7681 20.0613C16.6264 20.6448 16.2649 21.139 15.7511 21.4518L13.8881 22.5858C13.5304 22.8033 13.1284 22.9128 12.7241 22.9128ZM6.00115 4.68479C5.8654 4.68479 5.7319 4.72154 5.61265 4.79429L3.74965 5.92829C3.5239 6.06554 3.38965 6.30179 3.38965 6.55904C3.38965 8.69504 3.80965 11.9298 5.80765 15.2125C6.7099 16.6938 8.7589 19.4568 12.3469 21.3175C12.5974 21.448 12.8824 21.4435 13.1081 21.3048L14.9711 20.1708C15.1429 20.0665 15.2629 19.9023 15.3101 19.7073C15.3574 19.513 15.3259 19.3113 15.2224 19.1403L14.0524 17.2188C13.8371 16.8655 13.3751 16.7523 13.0211 16.9683L12.0559 17.5555C11.1724 18.0925 10.0474 17.9665 9.3199 17.2503C8.46415 16.4073 7.71265 15.4593 7.08865 14.4333C6.4624 13.4043 5.96515 12.3003 5.60965 11.1513C5.3089 10.1778 5.71465 9.12254 6.5974 8.58629L7.56265 7.99904C7.9159 7.78379 8.0284 7.32179 7.81315 6.96779L6.6439 5.04629C6.53965 4.87529 6.3754 4.75454 6.1804 4.70729C6.12115 4.69229 6.06115 4.68554 6.0019 4.68554L6.00115 4.68479Z" fill="#395D76"/>
<path d="M15.3167 13.6322C15.2784 13.6322 15.2402 13.6292 15.2012 13.6232C14.7917 13.5602 14.5112 13.177 14.5742 12.7675C14.8262 11.1325 13.7012 9.59723 12.0669 9.34523C11.6582 9.28223 11.3769 8.89898 11.4407 8.48948C11.5037 8.08073 11.8877 7.80173 12.2964 7.86323C14.7482 8.24198 16.4357 10.5445 16.0569 12.997C15.9999 13.3675 15.6804 13.6322 15.3167 13.6322Z" fill="#6BBCB9"/>
<path d="M18.2815 14.0905C18.2433 14.0905 18.2043 14.0875 18.166 14.0815C17.7565 14.0185 17.476 13.6353 17.539 13.2258C17.7835 11.6418 17.3965 10.057 16.4493 8.76476C15.502 7.47176 14.1078 6.625 12.5245 6.3805C12.115 6.3175 11.8345 5.93426 11.8975 5.52475C11.9605 5.11525 12.3475 4.83475 12.7533 4.89775C14.7333 5.20375 16.4755 6.26125 17.6598 7.8775C18.844 9.49375 19.3278 11.4738 19.0218 13.4538C18.9648 13.8243 18.6453 14.0905 18.2815 14.0905Z" fill="#6BBCB9"/>
<path d="M21.2458 14.5472C21.2075 14.5472 21.1685 14.5442 21.1303 14.5382C20.7208 14.4752 20.4403 14.092 20.5033 13.6825C21.26 8.77746 17.8858 4.17171 12.9815 3.41496C12.572 3.35196 12.2915 2.96871 12.3545 2.55921C12.4175 2.14971 12.8023 1.87146 13.2103 1.93221C18.932 2.81571 22.8688 8.18871 21.986 13.9105C21.929 14.281 21.6095 14.5472 21.2458 14.5472Z" fill="#6BBCB9"/>
</svg>
