<svg width="17" height="23" viewBox="0 0 17 23" fill="none" xmlns="http://www.w3.org/2000/svg">
<path d="M8.09961 0.340862C7.03601 0.340708 5.98279 0.550066 5.00011 0.956982C4.01743 1.3639 3.12453 1.9604 2.37239 2.71242C1.62026 3.46445 1.02363 4.35726 0.616569 5.33989C0.209511 6.32251 -1.12056e-08 7.3757 0 8.4393C0 13.4319 5.11957 19.7423 7.21794 22.1181C7.32826 22.2432 7.46393 22.3434 7.61594 22.412C7.76795 22.4806 7.93283 22.5161 8.09961 22.5161C8.26639 22.5161 8.43127 22.4806 8.58328 22.412C8.73529 22.3434 8.87096 22.2432 8.98128 22.1181C11.0797 19.7423 16.1992 13.4319 16.1992 8.4393C16.1992 7.3757 15.9897 6.32251 15.5827 5.33989C15.1756 4.35726 14.579 3.46445 13.8268 2.71242C13.0747 1.9604 12.1818 1.3639 11.1991 0.956982C10.2164 0.550066 9.16321 0.340708 8.09961 0.340862ZM8.09961 11.544C7.49273 11.5442 6.8994 11.3644 6.39468 11.0274C5.88996 10.6904 5.49652 10.2113 5.26411 9.65071C5.03171 9.09009 4.97078 8.47313 5.08903 7.87788C5.20729 7.28263 5.49941 6.73582 5.92846 6.3066C6.35751 5.87739 6.90422 5.58505 7.49942 5.46657C8.09463 5.34808 8.71161 5.40878 9.27232 5.64097C9.83303 5.87316 10.3123 6.26642 10.6495 6.77101C10.9867 7.2756 11.1666 7.86885 11.1666 8.47574C11.1671 8.87886 11.0881 9.27812 10.9342 9.6507C10.7803 10.0233 10.5545 10.3619 10.2697 10.6472C9.98482 10.9324 9.64656 11.1588 9.27422 11.3132C8.90187 11.4677 8.50273 11.5473 8.09961 11.5475V11.544Z" fill="#6BBCB9"/>
</svg>
